<svg width="56" height="56" fill="none" xmlns="http://www.w3.org/2000/svg"><g clip-path="url(#clip0_95_68)" fill="#1B3343"><path d="M17.828 48.781h20.344c.604 0 1.094-.49 1.094-1.093v-15.75c0-.605-.49-1.094-1.094-1.094H17.828c-.604 0-1.094.49-1.094 1.093v15.75c0 .605.49 1.094 1.094 1.094zm1.094-7.875h7.984v5.688h-7.984v-5.688zm10.172 5.688v-5.688h7.984v5.688h-7.984zm7.984-7.875h-7.984V33.03h7.984v5.688zM26.906 33.03v5.688h-7.984V33.03h7.984z"/><path d="M54.627 23.883l-4.534-3.826V7c0-.604-.49-1.094-1.093-1.094h-7c-.604 0-1.094.49-1.094 1.094v5.304L28.705 2.008a1.093 1.093 0 00-1.41 0L1.371 23.883a1.094 1.094 0 00.706 1.93h2.078v29.093c0 .605.49 1.094 1.094 1.094h45.5c.603 0 1.093-.49 1.093-1.094V25.813h2.078a1.094 1.094 0 00.706-1.93zM43.093 8.093h4.813v10.118l-4.813-4.06V8.093zM28 4.276l22.93 19.35H5.07L28 4.275zm21.656 49.538H6.343v-28h43.313v28z"/><path d="M27.501 19.705a.705.705 0 00.997 0l2.916-2.916A2.414 2.414 0 1028 13.375a2.414 2.414 0 00-3.415 3.414l2.916 2.916zM7.84 11.123c.381.382.889.592 1.429.592s1.047-.21 1.428-.591l3.836-3.836a4.274 4.274 0 000-6.038A4.241 4.241 0 0011.514 0a4.24 4.24 0 00-2.246.637 4.277 4.277 0 00-5.264.613 4.274 4.274 0 000 6.038l3.836 3.835zM5.55 2.797a2.076 2.076 0 011.472-.609c.533 0 1.066.203 1.472.61a1.094 1.094 0 001.547 0c.393-.394.916-.61 1.472-.61a2.084 2.084 0 011.472 3.554L9.27 9.458 5.55 5.74a2.084 2.084 0 010-2.944z"/></g><defs><clipPath id="clip0_95_68"><path fill="#fff" d="M0 0h56v56H0z"/></clipPath></defs></svg>