<svg width="24" height="24" fill="none" xmlns="http://www.w3.org/2000/svg"><circle cx="12" cy="12" r="12" fill="url(#paint0_linear_296_432)"/><path d="M15.949 7.2H8.652c-.824 0-1.452.628-1.452 1.452v7.297c0 .824.628 1.451 1.452 1.451h7.297c.824 0 1.451-.627 1.451-1.451V8.652c0-.824-.627-1.452-1.451-1.452zM12.3 15.36c1.687 0 3.06-1.334 3.06-2.942a2.8 2.8 0 00-.117-.824h.863v4.159a.393.393 0 01-.393.392H8.887a.393.393 0 01-.392-.393v-4.197h.902a3 3 0 00-.118.824c-.039 1.647 1.334 2.981 3.021 2.981zm0-1.177c-1.098 0-1.961-.863-1.961-1.922 0-1.06.863-1.922 1.961-1.922 1.099 0 1.962.863 1.962 1.922 0 1.098-.863 1.922-1.962 1.922zm3.766-4.197a.435.435 0 01-.431.431h-1.099a.435.435 0 01-.431-.431v-1.06c0-.235.196-.431.431-.431h1.099c.235 0 .431.196.431.431v1.06z" fill="#fff"/><defs><linearGradient id="paint0_linear_296_432" x1="5.1" y1="21.3" x2="21" y2="4.8" gradientUnits="userSpaceOnUse"><stop stop-color="#EEA054"/><stop offset=".503" stop-color="#D64763"/><stop offset="1" stop-color="#B62A99"/></linearGradient></defs></svg>