<svg width="24" height="24" fill="none" xmlns="http://www.w3.org/2000/svg"><circle cx="12" cy="12" r="12" fill="#7294C7"/><path d="M17.884 15.069c0-.05-.05-.05-.05-.1-.2-.398-.648-.896-1.245-1.444-.3-.25-.449-.448-.548-.548-.15-.2-.15-.348-.1-.548.05-.15.249-.398.598-.846.199-.25.298-.399.448-.548.747-.996 1.096-1.643.996-1.942l-.05-.05c-.05-.05-.1-.1-.199-.1-.1-.05-.249-.05-.398 0h-2.242l-.05.05c-.05.05-.05.05-.05.1-.199.548-.448.996-.697 1.494-.15.249-.299.498-.448.697-.15.2-.25.348-.349.448-.1.1-.2.15-.25.25-.049.049-.149.099-.149.049-.05 0-.1 0-.1-.05l-.149-.15c-.05-.05-.05-.149-.1-.248V9.092c0-.05-.049-.149-.049-.198l-.15-.15c-.05-.05-.149-.05-.199-.1a4.47 4.47 0 00-.896-.1c-.797 0-1.345.05-1.545.15-.1.05-.199.1-.249.2-.1.1-.1.149-.05.149.25.05.449.15.548.299l.05.1c.05.05.05.149.1.298.05.15.05.299.05.498v.797c0 .249-.05.398-.05.548 0 .15-.05.249-.1.299-.05.1-.05.149-.1.149 0 0 0 .05-.05.05-.049 0-.099.05-.198.05a.38.38 0 01-.2-.1.6.6 0 01-.249-.25 1.721 1.721 0 01-.299-.447c-.1-.2-.249-.399-.348-.697l-.1-.2c-.05-.1-.15-.298-.249-.547-.1-.25-.2-.449-.299-.698a.67.67 0 00-.15-.199h-.05s-.049-.05-.099-.05-.1-.05-.15-.05H5.879c-.199 0-.298.05-.348.1l-.05.05v.1c0 .05 0 .1.05.199.249.597.548 1.195.847 1.792.299.548.597 1.046.797 1.395.249.348.448.697.697.996.25.299.399.498.448.598l.2.199.15.15c.099.099.248.248.447.398.2.149.449.298.698.448.249.15.548.249.847.348.348.1.647.15.946.1h.747c.15 0 .25-.05.349-.15l.05-.05c0-.05.05-.05.05-.099v-.2c0-.198 0-.348.05-.497.05-.15.05-.25.1-.349.049-.1.099-.15.149-.199l.1-.1h.049c.1-.05.249 0 .349.1.15.1.299.25.398.399.1.149.25.298.449.497.199.2.348.35.448.399l.15.1c.099.05.198.1.348.149.15.05.249.05.349.05l1.693-.05c.15 0 .3-.05.399-.1.1-.05.15-.1.15-.199v-.2c-.1-.099-.1-.149-.1-.198z" fill="#fff"/></svg>