<svg width="24" height="24" fill="none" xmlns="http://www.w3.org/2000/svg"><circle cx="12" cy="12" r="12" fill="#F40000"/><path d="M17.228 11.348c0-.232-.039-.504-.039-.814-.039-.31-.077-.62-.116-.892-.078-.31-.194-.543-.427-.737a1.311 1.311 0 00-.737-.35c-.892-.116-2.21-.155-3.995-.155-1.784 0-3.142.04-3.995.156a1.31 1.31 0 00-.737.349 1.54 1.54 0 00-.427.737 3.11 3.11 0 00-.116.892c-.039.31-.039.582-.039.814v1.785c0 .232.039.504.039.814.039.31.077.62.116.892.078.31.194.543.427.737.194.194.465.31.737.35.892.116 2.21.154 3.995.154 1.784 0 3.142-.038 3.995-.155a1.31 1.31 0 00.737-.349c.194-.194.35-.427.427-.737.077-.271.116-.543.116-.892.039-.31.039-.582.039-.814v-1.785zm-3.258 1.203l-3.064 1.9a.296.296 0 01-.194.078c-.078 0-.117 0-.194-.039a.407.407 0 01-.194-.349v-3.84a.41.41 0 01.194-.35.352.352 0 01.388 0l3.064 1.901c.116.078.194.194.194.31 0 .117-.078.311-.194.389z" fill="#fff"/></svg>